<?xml version="1.0" encoding="UTF-8"?>
<!DOCTYPE svg PUBLIC "-//W3C//DTD SVG 1.1//EN" "http://www.w3.org/Graphics/SVG/1.1/DTD/svg11.dtd">
<svg xmlns="http://www.w3.org/2000/svg" version="1.1" viewBox="0 0 65 65" stroke="none">
	<rect width="100%" height="100%" fill="#FFFFFF"/>
	<path d="M4,4h1v1h-1z M5,4h1v1h-1z M6,4h1v1h-1z M7,4h1v1h-1z M8,4h1v1h-1z M9,4h1v1h-1z M10,4h1v1h-1z M12,4h1v1h-1z M14,4h1v1h-1z M15,4h1v1h-1z M16,4h1v1h-1z M21,4h1v1h-1z M22,4h1v1h-1z M23,4h1v1h-1z M25,4h1v1h-1z M26,4h1v1h-1z M27,4h1v1h-1z M28,4h1v1h-1z M29,4h1v1h-1z M31,4h1v1h-1z M32,4h1v1h-1z M33,4h1v1h-1z M34,4h1v1h-1z M36,4h1v1h-1z M39,4h1v1h-1z M40,4h1v1h-1z M43,4h1v1h-1z M45,4h1v1h-1z M46,4h1v1h-1z M47,4h1v1h-1z M48,4h1v1h-1z M50,4h1v1h-1z M51,4h1v1h-1z M54,4h1v1h-1z M55,4h1v1h-1z M56,4h1v1h-1z M57,4h1v1h-1z M58,4h1v1h-1z M59,4h1v1h-1z M60,4h1v1h-1z M4,5h1v1h-1z M10,5h1v1h-1z M12,5h1v1h-1z M14,5h1v1h-1z M15,5h1v1h-1z M16,5h1v1h-1z M19,5h1v1h-1z M21,5h1v1h-1z M22,5h1v1h-1z M23,5h1v1h-1z M25,5h1v1h-1z M29,5h1v1h-1z M31,5h1v1h-1z M32,5h1v1h-1z M36,5h1v1h-1z M40,5h1v1h-1z M41,5h1v1h-1z M45,5h1v1h-1z M48,5h1v1h-1z M51,5h1v1h-1z M54,5h1v1h-1z M60,5h1v1h-1z M4,6h1v1h-1z M6,6h1v1h-1z M7,6h1v1h-1z M8,6h1v1h-1z M10,6h1v1h-1z M13,6h1v1h-1z M18,6h1v1h-1z M22,6h1v1h-1z M25,6h1v1h-1z M29,6h1v1h-1z M31,6h1v1h-1z M32,6h1v1h-1z M39,6h1v1h-1z M40,6h1v1h-1z M41,6h1v1h-1z M42,6h1v1h-1z M45,6h1v1h-1z M46,6h1v1h-1z M50,6h1v1h-1z M51,6h1v1h-1z M54,6h1v1h-1z M56,6h1v1h-1z M57,6h1v1h-1z M58,6h1v1h-1z M60,6h1v1h-1z M4,7h1v1h-1z M6,7h1v1h-1z M7,7h1v1h-1z M8,7h1v1h-1z M10,7h1v1h-1z M12,7h1v1h-1z M14,7h1v1h-1z M16,7h1v1h-1z M18,7h1v1h-1z M21,7h1v1h-1z M22,7h1v1h-1z M23,7h1v1h-1z M24,7h1v1h-1z M25,7h1v1h-1z M27,7h1v1h-1z M30,7h1v1h-1z M33,7h1v1h-1z M35,7h1v1h-1z M38,7h1v1h-1z M40,7h1v1h-1z M42,7h1v1h-1z M45,7h1v1h-1z M46,7h1v1h-1z M47,7h1v1h-1z M49,7h1v1h-1z M51,7h1v1h-1z M54,7h1v1h-1z M56,7h1v1h-1z M57,7h1v1h-1z M58,7h1v1h-1z M60,7h1v1h-1z M4,8h1v1h-1z M6,8h1v1h-1z M7,8h1v1h-1z M8,8h1v1h-1z M10,8h1v1h-1z M13,8h1v1h-1z M14,8h1v1h-1z M17,8h1v1h-1z M19,8h1v1h-1z M20,8h1v1h-1z M21,8h1v1h-1z M23,8h1v1h-1z M25,8h1v1h-1z M26,8h1v1h-1z M27,8h1v1h-1z M30,8h1v1h-1z M31,8h1v1h-1z M32,8h1v1h-1z M33,8h1v1h-1z M34,8h1v1h-1z M36,8h1v1h-1z M37,8h1v1h-1z M42,8h1v1h-1z M43,8h1v1h-1z M44,8h1v1h-1z M47,8h1v1h-1z M48,8h1v1h-1z M49,8h1v1h-1z M51,8h1v1h-1z M54,8h1v1h-1z M56,8h1v1h-1z M57,8h1v1h-1z M58,8h1v1h-1z M60,8h1v1h-1z M4,9h1v1h-1z M10,9h1v1h-1z M15,9h1v1h-1z M17,9h1v1h-1z M18,9h1v1h-1z M26,9h1v1h-1z M27,9h1v1h-1z M28,9h1v1h-1z M30,9h1v1h-1z M34,9h1v1h-1z M35,9h1v1h-1z M37,9h1v1h-1z M38,9h1v1h-1z M39,9h1v1h-1z M40,9h1v1h-1z M42,9h1v1h-1z M43,9h1v1h-1z M45,9h1v1h-1z M49,9h1v1h-1z M50,9h1v1h-1z M54,9h1v1h-1z M60,9h1v1h-1z M4,10h1v1h-1z M5,10h1v1h-1z M6,10h1v1h-1z M7,10h1v1h-1z M8,10h1v1h-1z M9,10h1v1h-1z M10,10h1v1h-1z M12,10h1v1h-1z M14,10h1v1h-1z M16,10h1v1h-1z M18,10h1v1h-1z M20,10h1v1h-1z M22,10h1v1h-1z M24,10h1v1h-1z M26,10h1v1h-1z M28,10h1v1h-1z M30,10h1v1h-1z M32,10h1v1h-1z M34,10h1v1h-1z M36,10h1v1h-1z M38,10h1v1h-1z M40,10h1v1h-1z M42,10h1v1h-1z M44,10h1v1h-1z M46,10h1v1h-1z M48,10h1v1h-1z M50,10h1v1h-1z M52,10h1v1h-1z M54,10h1v1h-1z M55,10h1v1h-1z M56,10h1v1h-1z M57,10h1v1h-1z M58,10h1v1h-1z M59,10h1v1h-1z M60,10h1v1h-1z M12,11h1v1h-1z M13,11h1v1h-1z M16,11h1v1h-1z M17,11h1v1h-1z M19,11h1v1h-1z M21,11h1v1h-1z M22,11h1v1h-1z M23,11h1v1h-1z M24,11h1v1h-1z M26,11h1v1h-1z M27,11h1v1h-1z M28,11h1v1h-1z M30,11h1v1h-1z M34,11h1v1h-1z M36,11h1v1h-1z M39,11h1v1h-1z M41,11h1v1h-1z M42,11h1v1h-1z M43,11h1v1h-1z M44,11h1v1h-1z M45,11h1v1h-1z M47,11h1v1h-1z M51,11h1v1h-1z M4,12h1v1h-1z M6,12h1v1h-1z M7,12h1v1h-1z M9,12h1v1h-1z M10,12h1v1h-1z M11,12h1v1h-1z M13,12h1v1h-1z M17,12h1v1h-1z M18,12h1v1h-1z M21,12h1v1h-1z M22,12h1v1h-1z M24,12h1v1h-1z M25,12h1v1h-1z M26,12h1v1h-1z M27,12h1v1h-1z M28,12h1v1h-1z M29,12h1v1h-1z M30,12h1v1h-1z M31,12h1v1h-1z M32,12h1v1h-1z M33,12h1v1h-1z M34,12h1v1h-1z M37,12h1v1h-1z M39,12h1v1h-1z M41,12h1v1h-1z M44,12h1v1h-1z M45,12h1v1h-1z M47,12h1v1h-1z M49,12h1v1h-1z M50,12h1v1h-1z M51,12h1v1h-1z M52,12h1v1h-1z M54,12h1v1h-1z M57,12h1v1h-1z M59,12h1v1h-1z M60,12h1v1h-1z M4,13h1v1h-1z M5,13h1v1h-1z M11,13h1v1h-1z M12,13h1v1h-1z M14,13h1v1h-1z M17,13h1v1h-1z M20,13h1v1h-1z M21,13h1v1h-1z M22,13h1v1h-1z M24,13h1v1h-1z M25,13h1v1h-1z M28,13h1v1h-1z M30,13h1v1h-1z M33,13h1v1h-1z M34,13h1v1h-1z M35,13h1v1h-1z M37,13h1v1h-1z M43,13h1v1h-1z M45,13h1v1h-1z M46,13h1v1h-1z M52,13h1v1h-1z M53,13h1v1h-1z M56,13h1v1h-1z M59,13h1v1h-1z M60,13h1v1h-1z M4,14h1v1h-1z M5,14h1v1h-1z M6,14h1v1h-1z M9,14h1v1h-1z M10,14h1v1h-1z M13,14h1v1h-1z M14,14h1v1h-1z M23,14h1v1h-1z M25,14h1v1h-1z M27,14h1v1h-1z M31,14h1v1h-1z M32,14h1v1h-1z M33,14h1v1h-1z M34,14h1v1h-1z M35,14h1v1h-1z M37,14h1v1h-1z M38,14h1v1h-1z M41,14h1v1h-1z M44,14h1v1h-1z M45,14h1v1h-1z M46,14h1v1h-1z M48,14h1v1h-1z M49,14h1v1h-1z M51,14h1v1h-1z M55,14h1v1h-1z M57,14h1v1h-1z M58,14h1v1h-1z M59,14h1v1h-1z M60,14h1v1h-1z M6,15h1v1h-1z M7,15h1v1h-1z M9,15h1v1h-1z M19,15h1v1h-1z M22,15h1v1h-1z M26,15h1v1h-1z M28,15h1v1h-1z M29,15h1v1h-1z M32,15h1v1h-1z M34,15h1v1h-1z M35,15h1v1h-1z M37,15h1v1h-1z M39,15h1v1h-1z M40,15h1v1h-1z M41,15h1v1h-1z M42,15h1v1h-1z M43,15h1v1h-1z M44,15h1v1h-1z M47,15h1v1h-1z M48,15h1v1h-1z M50,15h1v1h-1z M52,15h1v1h-1z M53,15h1v1h-1z M56,15h1v1h-1z M57,15h1v1h-1z M59,15h1v1h-1z M60,15h1v1h-1z M4,16h1v1h-1z M6,16h1v1h-1z M7,16h1v1h-1z M10,16h1v1h-1z M16,16h1v1h-1z M17,16h1v1h-1z M18,16h1v1h-1z M19,16h1v1h-1z M21,16h1v1h-1z M22,16h1v1h-1z M23,16h1v1h-1z M25,16h1v1h-1z M27,16h1v1h-1z M28,16h1v1h-1z M29,16h1v1h-1z M30,16h1v1h-1z M33,16h1v1h-1z M34,16h1v1h-1z M35,16h1v1h-1z M37,16h1v1h-1z M38,16h1v1h-1z M40,16h1v1h-1z M41,16h1v1h-1z M42,16h1v1h-1z M45,16h1v1h-1z M47,16h1v1h-1z M50,16h1v1h-1z M52,16h1v1h-1z M54,16h1v1h-1z M58,16h1v1h-1z M59,16h1v1h-1z M60,16h1v1h-1z M4,17h1v1h-1z M5,17h1v1h-1z M6,17h1v1h-1z M7,17h1v1h-1z M8,17h1v1h-1z M15,17h1v1h-1z M17,17h1v1h-1z M19,17h1v1h-1z M20,17h1v1h-1z M23,17h1v1h-1z M24,17h1v1h-1z M29,17h1v1h-1z M30,17h1v1h-1z M32,17h1v1h-1z M36,17h1v1h-1z M39,17h1v1h-1z M40,17h1v1h-1z M41,17h1v1h-1z M42,17h1v1h-1z M43,17h1v1h-1z M45,17h1v1h-1z M47,17h1v1h-1z M48,17h1v1h-1z M49,17h1v1h-1z M53,17h1v1h-1z M54,17h1v1h-1z M55,17h1v1h-1z M57,17h1v1h-1z M60,17h1v1h-1z M5,18h1v1h-1z M8,18h1v1h-1z M9,18h1v1h-1z M10,18h1v1h-1z M11,18h1v1h-1z M13,18h1v1h-1z M14,18h1v1h-1z M17,18h1v1h-1z M18,18h1v1h-1z M19,18h1v1h-1z M20,18h1v1h-1z M21,18h1v1h-1z M23,18h1v1h-1z M24,18h1v1h-1z M25,18h1v1h-1z M26,18h1v1h-1z M27,18h1v1h-1z M29,18h1v1h-1z M31,18h1v1h-1z M36,18h1v1h-1z M37,18h1v1h-1z M40,18h1v1h-1z M42,18h1v1h-1z M43,18h1v1h-1z M44,18h1v1h-1z M46,18h1v1h-1z M48,18h1v1h-1z M53,18h1v1h-1z M4,19h1v1h-1z M8,19h1v1h-1z M11,19h1v1h-1z M14,19h1v1h-1z M20,19h1v1h-1z M28,19h1v1h-1z M32,19h1v1h-1z M34,19h1v1h-1z M35,19h1v1h-1z M36,19h1v1h-1z M37,19h1v1h-1z M38,19h1v1h-1z M39,19h1v1h-1z M41,19h1v1h-1z M42,19h1v1h-1z M44,19h1v1h-1z M46,19h1v1h-1z M47,19h1v1h-1z M48,19h1v1h-1z M49,19h1v1h-1z M53,19h1v1h-1z M54,19h1v1h-1z M55,19h1v1h-1z M56,19h1v1h-1z M57,19h1v1h-1z M58,19h1v1h-1z M59,19h1v1h-1z M4,20h1v1h-1z M8,20h1v1h-1z M10,20h1v1h-1z M14,20h1v1h-1z M15,20h1v1h-1z M16,20h1v1h-1z M18,20h1v1h-1z M19,20h1v1h-1z M21,20h1v1h-1z M22,20h1v1h-1z M24,20h1v1h-1z M26,20h1v1h-1z M28,20h1v1h-1z M29,20h1v1h-1z M34,20h1v1h-1z M35,20h1v1h-1z M36,20h1v1h-1z M39,20h1v1h-1z M41,20h1v1h-1z M42,20h1v1h-1z M45,20h1v1h-1z M46,20h1v1h-1z M48,20h1v1h-1z M49,20h1v1h-1z M52,20h1v1h-1z M57,20h1v1h-1z M58,20h1v1h-1z M59,20h1v1h-1z M60,20h1v1h-1z M5,21h1v1h-1z M6,21h1v1h-1z M7,21h1v1h-1z M12,21h1v1h-1z M14,21h1v1h-1z M15,21h1v1h-1z M17,21h1v1h-1z M18,21h1v1h-1z M19,21h1v1h-1z M20,21h1v1h-1z M21,21h1v1h-1z M22,21h1v1h-1z M23,21h1v1h-1z M24,21h1v1h-1z M25,21h1v1h-1z M26,21h1v1h-1z M32,21h1v1h-1z M33,21h1v1h-1z M36,21h1v1h-1z M38,21h1v1h-1z M41,21h1v1h-1z M45,21h1v1h-1z M47,21h1v1h-1z M49,21h1v1h-1z M50,21h1v1h-1z M51,21h1v1h-1z M53,21h1v1h-1z M55,21h1v1h-1z M56,21h1v1h-1z M60,21h1v1h-1z M4,22h1v1h-1z M5,22h1v1h-1z M6,22h1v1h-1z M10,22h1v1h-1z M12,22h1v1h-1z M13,22h1v1h-1z M14,22h1v1h-1z M15,22h1v1h-1z M17,22h1v1h-1z M19,22h1v1h-1z M20,22h1v1h-1z M21,22h1v1h-1z M22,22h1v1h-1z M23,22h1v1h-1z M24,22h1v1h-1z M29,22h1v1h-1z M32,22h1v1h-1z M34,22h1v1h-1z M35,22h1v1h-1z M36,22h1v1h-1z M38,22h1v1h-1z M39,22h1v1h-1z M44,22h1v1h-1z M45,22h1v1h-1z M46,22h1v1h-1z M47,22h1v1h-1z M51,22h1v1h-1z M53,22h1v1h-1z M54,22h1v1h-1z M56,22h1v1h-1z M58,22h1v1h-1z M7,23h1v1h-1z M8,23h1v1h-1z M11,23h1v1h-1z M14,23h1v1h-1z M17,23h1v1h-1z M18,23h1v1h-1z M19,23h1v1h-1z M20,23h1v1h-1z M21,23h1v1h-1z M23,23h1v1h-1z M24,23h1v1h-1z M25,23h1v1h-1z M26,23h1v1h-1z M29,23h1v1h-1z M30,23h1v1h-1z M31,23h1v1h-1z M33,23h1v1h-1z M34,23h1v1h-1z M35,23h1v1h-1z M36,23h1v1h-1z M38,23h1v1h-1z M40,23h1v1h-1z M43,23h1v1h-1z M44,23h1v1h-1z M45,23h1v1h-1z M46,23h1v1h-1z M48,23h1v1h-1z M50,23h1v1h-1z M52,23h1v1h-1z M54,23h1v1h-1z M57,23h1v1h-1z M60,23h1v1h-1z M7,24h1v1h-1z M8,24h1v1h-1z M9,24h1v1h-1z M10,24h1v1h-1z M13,24h1v1h-1z M14,24h1v1h-1z M15,24h1v1h-1z M17,24h1v1h-1z M18,24h1v1h-1z M28,24h1v1h-1z M31,24h1v1h-1z M32,24h1v1h-1z M34,24h1v1h-1z M38,24h1v1h-1z M41,24h1v1h-1z M44,24h1v1h-1z M49,24h1v1h-1z M50,24h1v1h-1z M53,24h1v1h-1z M55,24h1v1h-1z M56,24h1v1h-1z M57,24h1v1h-1z M58,24h1v1h-1z M4,25h1v1h-1z M5,25h1v1h-1z M7,25h1v1h-1z M8,25h1v1h-1z M9,25h1v1h-1z M12,25h1v1h-1z M13,25h1v1h-1z M15,25h1v1h-1z M18,25h1v1h-1z M20,25h1v1h-1z M21,25h1v1h-1z M23,25h1v1h-1z M25,25h1v1h-1z M26,25h1v1h-1z M27,25h1v1h-1z M28,25h1v1h-1z M29,25h1v1h-1z M34,25h1v1h-1z M35,25h1v1h-1z M39,25h1v1h-1z M40,25h1v1h-1z M43,25h1v1h-1z M45,25h1v1h-1z M46,25h1v1h-1z M47,25h1v1h-1z M48,25h1v1h-1z M49,25h1v1h-1z M51,25h1v1h-1z M52,25h1v1h-1z M53,25h1v1h-1z M58,25h1v1h-1z M59,25h1v1h-1z M60,25h1v1h-1z M5,26h1v1h-1z M6,26h1v1h-1z M8,26h1v1h-1z M9,26h1v1h-1z M10,26h1v1h-1z M13,26h1v1h-1z M14,26h1v1h-1z M19,26h1v1h-1z M21,26h1v1h-1z M26,26h1v1h-1z M27,26h1v1h-1z M28,26h1v1h-1z M29,26h1v1h-1z M30,26h1v1h-1z M31,26h1v1h-1z M33,26h1v1h-1z M36,26h1v1h-1z M41,26h1v1h-1z M43,26h1v1h-1z M45,26h1v1h-1z M49,26h1v1h-1z M50,26h1v1h-1z M52,26h1v1h-1z M54,26h1v1h-1z M56,26h1v1h-1z M57,26h1v1h-1z M58,26h1v1h-1z M59,26h1v1h-1z M60,26h1v1h-1z M5,27h1v1h-1z M15,27h1v1h-1z M16,27h1v1h-1z M20,27h1v1h-1z M21,27h1v1h-1z M22,27h1v1h-1z M23,27h1v1h-1z M25,27h1v1h-1z M26,27h1v1h-1z M28,27h1v1h-1z M36,27h1v1h-1z M37,27h1v1h-1z M38,27h1v1h-1z M40,27h1v1h-1z M41,27h1v1h-1z M45,27h1v1h-1z M47,27h1v1h-1z M50,27h1v1h-1z M54,27h1v1h-1z M55,27h1v1h-1z M56,27h1v1h-1z M57,27h1v1h-1z M7,28h1v1h-1z M8,28h1v1h-1z M9,28h1v1h-1z M10,28h1v1h-1z M12,28h1v1h-1z M16,28h1v1h-1z M18,28h1v1h-1z M19,28h1v1h-1z M20,28h1v1h-1z M23,28h1v1h-1z M24,28h1v1h-1z M26,28h1v1h-1z M27,28h1v1h-1z M29,28h1v1h-1z M30,28h1v1h-1z M33,28h1v1h-1z M37,28h1v1h-1z M40,28h1v1h-1z M41,28h1v1h-1z M42,28h1v1h-1z M45,28h1v1h-1z M46,28h1v1h-1z M47,28h1v1h-1z M49,28h1v1h-1z M51,28h1v1h-1z M58,28h1v1h-1z M59,28h1v1h-1z M8,29h1v1h-1z M9,29h1v1h-1z M11,29h1v1h-1z M13,29h1v1h-1z M15,29h1v1h-1z M21,29h1v1h-1z M22,29h1v1h-1z M23,29h1v1h-1z M24,29h1v1h-1z M25,29h1v1h-1z M27,29h1v1h-1z M29,29h1v1h-1z M31,29h1v1h-1z M35,29h1v1h-1z M37,29h1v1h-1z M39,29h1v1h-1z M40,29h1v1h-1z M42,29h1v1h-1z M43,29h1v1h-1z M44,29h1v1h-1z M51,29h1v1h-1z M54,29h1v1h-1z M56,29h1v1h-1z M60,29h1v1h-1z M4,30h1v1h-1z M5,30h1v1h-1z M7,30h1v1h-1z M8,30h1v1h-1z M9,30h1v1h-1z M10,30h1v1h-1z M11,30h1v1h-1z M12,30h1v1h-1z M14,30h1v1h-1z M17,30h1v1h-1z M18,30h1v1h-1z M23,30h1v1h-1z M26,30h1v1h-1z M27,30h1v1h-1z M30,30h1v1h-1z M31,30h1v1h-1z M32,30h1v1h-1z M33,30h1v1h-1z M34,30h1v1h-1z M37,30h1v1h-1z M38,30h1v1h-1z M39,30h1v1h-1z M41,30h1v1h-1z M42,30h1v1h-1z M44,30h1v1h-1z M45,30h1v1h-1z M49,30h1v1h-1z M52,30h1v1h-1z M53,30h1v1h-1z M54,30h1v1h-1z M55,30h1v1h-1z M56,30h1v1h-1z M57,30h1v1h-1z M59,30h1v1h-1z M4,31h1v1h-1z M6,31h1v1h-1z M7,31h1v1h-1z M8,31h1v1h-1z M12,31h1v1h-1z M14,31h1v1h-1z M15,31h1v1h-1z M16,31h1v1h-1z M18,31h1v1h-1z M23,31h1v1h-1z M24,31h1v1h-1z M27,31h1v1h-1z M30,31h1v1h-1z M34,31h1v1h-1z M35,31h1v1h-1z M36,31h1v1h-1z M37,31h1v1h-1z M40,31h1v1h-1z M41,31h1v1h-1z M42,31h1v1h-1z M44,31h1v1h-1z M47,31h1v1h-1z M48,31h1v1h-1z M49,31h1v1h-1z M51,31h1v1h-1z M52,31h1v1h-1z M56,31h1v1h-1z M57,31h1v1h-1z M58,31h1v1h-1z M59,31h1v1h-1z M60,31h1v1h-1z M4,32h1v1h-1z M5,32h1v1h-1z M6,32h1v1h-1z M8,32h1v1h-1z M10,32h1v1h-1z M12,32h1v1h-1z M13,32h1v1h-1z M15,32h1v1h-1z M16,32h1v1h-1z M17,32h1v1h-1z M20,32h1v1h-1z M21,32h1v1h-1z M22,32h1v1h-1z M23,32h1v1h-1z M25,32h1v1h-1z M28,32h1v1h-1z M30,32h1v1h-1z M32,32h1v1h-1z M34,32h1v1h-1z M36,32h1v1h-1z M37,32h1v1h-1z M41,32h1v1h-1z M42,32h1v1h-1z M48,32h1v1h-1z M50,32h1v1h-1z M51,32h1v1h-1z M52,32h1v1h-1z M54,32h1v1h-1z M56,32h1v1h-1z M58,32h1v1h-1z M4,33h1v1h-1z M5,33h1v1h-1z M8,33h1v1h-1z M12,33h1v1h-1z M13,33h1v1h-1z M15,33h1v1h-1z M16,33h1v1h-1z M18,33h1v1h-1z M20,33h1v1h-1z M21,33h1v1h-1z M23,33h1v1h-1z M24,33h1v1h-1z M25,33h1v1h-1z M26,33h1v1h-1z M30,33h1v1h-1z M34,33h1v1h-1z M38,33h1v1h-1z M40,33h1v1h-1z M43,33h1v1h-1z M44,33h1v1h-1z M45,33h1v1h-1z M49,33h1v1h-1z M50,33h1v1h-1z M51,33h1v1h-1z M52,33h1v1h-1z M56,33h1v1h-1z M57,33h1v1h-1z M59,33h1v1h-1z M60,33h1v1h-1z M8,34h1v1h-1z M9,34h1v1h-1z M10,34h1v1h-1z M11,34h1v1h-1z M12,34h1v1h-1z M13,34h1v1h-1z M14,34h1v1h-1z M17,34h1v1h-1z M20,34h1v1h-1z M22,34h1v1h-1z M23,34h1v1h-1z M25,34h1v1h-1z M26,34h1v1h-1z M27,34h1v1h-1z M28,34h1v1h-1z M30,34h1v1h-1z M31,34h1v1h-1z M32,34h1v1h-1z M33,34h1v1h-1z M34,34h1v1h-1z M35,34h1v1h-1z M37,34h1v1h-1z M38,34h1v1h-1z M41,34h1v1h-1z M44,34h1v1h-1z M47,34h1v1h-1z M48,34h1v1h-1z M49,34h1v1h-1z M52,34h1v1h-1z M53,34h1v1h-1z M54,34h1v1h-1z M55,34h1v1h-1z M56,34h1v1h-1z M57,34h1v1h-1z M58,34h1v1h-1z M59,34h1v1h-1z M6,35h1v1h-1z M11,35h1v1h-1z M12,35h1v1h-1z M14,35h1v1h-1z M15,35h1v1h-1z M17,35h1v1h-1z M18,35h1v1h-1z M21,35h1v1h-1z M23,35h1v1h-1z M24,35h1v1h-1z M25,35h1v1h-1z M28,35h1v1h-1z M30,35h1v1h-1z M33,35h1v1h-1z M38,35h1v1h-1z M40,35h1v1h-1z M41,35h1v1h-1z M42,35h1v1h-1z M46,35h1v1h-1z M50,35h1v1h-1z M52,35h1v1h-1z M53,35h1v1h-1z M56,35h1v1h-1z M59,35h1v1h-1z M60,35h1v1h-1z M5,36h1v1h-1z M6,36h1v1h-1z M8,36h1v1h-1z M9,36h1v1h-1z M10,36h1v1h-1z M13,36h1v1h-1z M14,36h1v1h-1z M15,36h1v1h-1z M17,36h1v1h-1z M18,36h1v1h-1z M19,36h1v1h-1z M20,36h1v1h-1z M23,36h1v1h-1z M24,36h1v1h-1z M31,36h1v1h-1z M34,36h1v1h-1z M35,36h1v1h-1z M37,36h1v1h-1z M41,36h1v1h-1z M43,36h1v1h-1z M44,36h1v1h-1z M45,36h1v1h-1z M50,36h1v1h-1z M52,36h1v1h-1z M53,36h1v1h-1z M54,36h1v1h-1z M59,36h1v1h-1z M4,37h1v1h-1z M5,37h1v1h-1z M6,37h1v1h-1z M11,37h1v1h-1z M13,37h1v1h-1z M14,37h1v1h-1z M15,37h1v1h-1z M18,37h1v1h-1z M20,37h1v1h-1z M23,37h1v1h-1z M24,37h1v1h-1z M26,37h1v1h-1z M27,37h1v1h-1z M28,37h1v1h-1z M30,37h1v1h-1z M31,37h1v1h-1z M34,37h1v1h-1z M35,37h1v1h-1z M41,37h1v1h-1z M44,37h1v1h-1z M46,37h1v1h-1z M47,37h1v1h-1z M48,37h1v1h-1z M49,37h1v1h-1z M51,37h1v1h-1z M52,37h1v1h-1z M58,37h1v1h-1z M59,37h1v1h-1z M4,38h1v1h-1z M6,38h1v1h-1z M7,38h1v1h-1z M8,38h1v1h-1z M10,38h1v1h-1z M13,38h1v1h-1z M14,38h1v1h-1z M15,38h1v1h-1z M16,38h1v1h-1z M19,38h1v1h-1z M20,38h1v1h-1z M21,38h1v1h-1z M23,38h1v1h-1z M28,38h1v1h-1z M29,38h1v1h-1z M30,38h1v1h-1z M33,38h1v1h-1z M35,38h1v1h-1z M36,38h1v1h-1z M39,38h1v1h-1z M41,38h1v1h-1z M46,38h1v1h-1z M47,38h1v1h-1z M48,38h1v1h-1z M51,38h1v1h-1z M53,38h1v1h-1z M54,38h1v1h-1z M56,38h1v1h-1z M59,38h1v1h-1z M5,39h1v1h-1z M12,39h1v1h-1z M13,39h1v1h-1z M14,39h1v1h-1z M16,39h1v1h-1z M18,39h1v1h-1z M19,39h1v1h-1z M20,39h1v1h-1z M21,39h1v1h-1z M23,39h1v1h-1z M26,39h1v1h-1z M30,39h1v1h-1z M31,39h1v1h-1z M32,39h1v1h-1z M33,39h1v1h-1z M34,39h1v1h-1z M35,39h1v1h-1z M36,39h1v1h-1z M41,39h1v1h-1z M42,39h1v1h-1z M44,39h1v1h-1z M50,39h1v1h-1z M52,39h1v1h-1z M53,39h1v1h-1z M54,39h1v1h-1z M55,39h1v1h-1z M57,39h1v1h-1z M59,39h1v1h-1z M6,40h1v1h-1z M7,40h1v1h-1z M9,40h1v1h-1z M10,40h1v1h-1z M11,40h1v1h-1z M13,40h1v1h-1z M15,40h1v1h-1z M17,40h1v1h-1z M18,40h1v1h-1z M19,40h1v1h-1z M23,40h1v1h-1z M27,40h1v1h-1z M29,40h1v1h-1z M31,40h1v1h-1z M33,40h1v1h-1z M35,40h1v1h-1z M37,40h1v1h-1z M38,40h1v1h-1z M39,40h1v1h-1z M40,40h1v1h-1z M42,40h1v1h-1z M45,40h1v1h-1z M47,40h1v1h-1z M49,40h1v1h-1z M50,40h1v1h-1z M53,40h1v1h-1z M55,40h1v1h-1z M4,41h1v1h-1z M5,41h1v1h-1z M7,41h1v1h-1z M8,41h1v1h-1z M9,41h1v1h-1z M11,41h1v1h-1z M12,41h1v1h-1z M14,41h1v1h-1z M15,41h1v1h-1z M16,41h1v1h-1z M17,41h1v1h-1z M18,41h1v1h-1z M20,41h1v1h-1z M22,41h1v1h-1z M23,41h1v1h-1z M24,41h1v1h-1z M25,41h1v1h-1z M26,41h1v1h-1z M27,41h1v1h-1z M30,41h1v1h-1z M31,41h1v1h-1z M33,41h1v1h-1z M34,41h1v1h-1z M36,41h1v1h-1z M37,41h1v1h-1z M41,41h1v1h-1z M42,41h1v1h-1z M43,41h1v1h-1z M44,41h1v1h-1z M47,41h1v1h-1z M48,41h1v1h-1z M49,41h1v1h-1z M53,41h1v1h-1z M54,41h1v1h-1z M55,41h1v1h-1z M57,41h1v1h-1z M58,41h1v1h-1z M59,41h1v1h-1z M5,42h1v1h-1z M6,42h1v1h-1z M7,42h1v1h-1z M10,42h1v1h-1z M11,42h1v1h-1z M14,42h1v1h-1z M16,42h1v1h-1z M17,42h1v1h-1z M18,42h1v1h-1z M20,42h1v1h-1z M22,42h1v1h-1z M26,42h1v1h-1z M27,42h1v1h-1z M29,42h1v1h-1z M30,42h1v1h-1z M31,42h1v1h-1z M32,42h1v1h-1z M33,42h1v1h-1z M35,42h1v1h-1z M36,42h1v1h-1z M38,42h1v1h-1z M39,42h1v1h-1z M43,42h1v1h-1z M49,42h1v1h-1z M50,42h1v1h-1z M55,42h1v1h-1z M56,42h1v1h-1z M57,42h1v1h-1z M59,42h1v1h-1z M4,43h1v1h-1z M6,43h1v1h-1z M13,43h1v1h-1z M15,43h1v1h-1z M18,43h1v1h-1z M22,43h1v1h-1z M23,43h1v1h-1z M26,43h1v1h-1z M28,43h1v1h-1z M30,43h1v1h-1z M33,43h1v1h-1z M34,43h1v1h-1z M38,43h1v1h-1z M42,43h1v1h-1z M46,43h1v1h-1z M47,43h1v1h-1z M48,43h1v1h-1z M49,43h1v1h-1z M51,43h1v1h-1z M53,43h1v1h-1z M55,43h1v1h-1z M58,43h1v1h-1z M59,43h1v1h-1z M4,44h1v1h-1z M5,44h1v1h-1z M6,44h1v1h-1z M7,44h1v1h-1z M9,44h1v1h-1z M10,44h1v1h-1z M12,44h1v1h-1z M13,44h1v1h-1z M21,44h1v1h-1z M23,44h1v1h-1z M26,44h1v1h-1z M28,44h1v1h-1z M35,44h1v1h-1z M36,44h1v1h-1z M37,44h1v1h-1z M38,44h1v1h-1z M43,44h1v1h-1z M48,44h1v1h-1z M49,44h1v1h-1z M50,44h1v1h-1z M51,44h1v1h-1z M56,44h1v1h-1z M58,44h1v1h-1z M59,44h1v1h-1z M60,44h1v1h-1z M6,45h1v1h-1z M7,45h1v1h-1z M8,45h1v1h-1z M11,45h1v1h-1z M15,45h1v1h-1z M16,45h1v1h-1z M17,45h1v1h-1z M19,45h1v1h-1z M21,45h1v1h-1z M23,45h1v1h-1z M25,45h1v1h-1z M29,45h1v1h-1z M31,45h1v1h-1z M32,45h1v1h-1z M33,45h1v1h-1z M35,45h1v1h-1z M37,45h1v1h-1z M38,45h1v1h-1z M41,45h1v1h-1z M43,45h1v1h-1z M45,45h1v1h-1z M47,45h1v1h-1z M48,45h1v1h-1z M49,45h1v1h-1z M50,45h1v1h-1z M53,45h1v1h-1z M54,45h1v1h-1z M55,45h1v1h-1z M56,45h1v1h-1z M57,45h1v1h-1z M60,45h1v1h-1z M4,46h1v1h-1z M10,46h1v1h-1z M14,46h1v1h-1z M15,46h1v1h-1z M16,46h1v1h-1z M18,46h1v1h-1z M19,46h1v1h-1z M21,46h1v1h-1z M25,46h1v1h-1z M26,46h1v1h-1z M28,46h1v1h-1z M30,46h1v1h-1z M31,46h1v1h-1z M33,46h1v1h-1z M34,46h1v1h-1z M36,46h1v1h-1z M37,46h1v1h-1z M40,46h1v1h-1z M41,46h1v1h-1z M42,46h1v1h-1z M45,46h1v1h-1z M46,46h1v1h-1z M47,46h1v1h-1z M48,46h1v1h-1z M49,46h1v1h-1z M51,46h1v1h-1z M52,46h1v1h-1z M53,46h1v1h-1z M57,46h1v1h-1z M58,46h1v1h-1z M59,46h1v1h-1z M6,47h1v1h-1z M15,47h1v1h-1z M17,47h1v1h-1z M25,47h1v1h-1z M26,47h1v1h-1z M30,47h1v1h-1z M31,47h1v1h-1z M32,47h1v1h-1z M33,47h1v1h-1z M35,47h1v1h-1z M38,47h1v1h-1z M39,47h1v1h-1z M41,47h1v1h-1z M44,47h1v1h-1z M47,47h1v1h-1z M48,47h1v1h-1z M51,47h1v1h-1z M52,47h1v1h-1z M53,47h1v1h-1z M54,47h1v1h-1z M4,48h1v1h-1z M6,48h1v1h-1z M8,48h1v1h-1z M9,48h1v1h-1z M10,48h1v1h-1z M11,48h1v1h-1z M13,48h1v1h-1z M17,48h1v1h-1z M18,48h1v1h-1z M19,48h1v1h-1z M20,48h1v1h-1z M22,48h1v1h-1z M23,48h1v1h-1z M28,48h1v1h-1z M29,48h1v1h-1z M32,48h1v1h-1z M34,48h1v1h-1z M35,48h1v1h-1z M37,48h1v1h-1z M38,48h1v1h-1z M39,48h1v1h-1z M41,48h1v1h-1z M42,48h1v1h-1z M43,48h1v1h-1z M44,48h1v1h-1z M56,48h1v1h-1z M60,48h1v1h-1z M6,49h1v1h-1z M7,49h1v1h-1z M11,49h1v1h-1z M13,49h1v1h-1z M14,49h1v1h-1z M16,49h1v1h-1z M18,49h1v1h-1z M20,49h1v1h-1z M21,49h1v1h-1z M22,49h1v1h-1z M23,49h1v1h-1z M27,49h1v1h-1z M28,49h1v1h-1z M35,49h1v1h-1z M40,49h1v1h-1z M43,49h1v1h-1z M44,49h1v1h-1z M45,49h1v1h-1z M46,49h1v1h-1z M48,49h1v1h-1z M49,49h1v1h-1z M51,49h1v1h-1z M53,49h1v1h-1z M54,49h1v1h-1z M58,49h1v1h-1z M59,49h1v1h-1z M60,49h1v1h-1z M4,50h1v1h-1z M6,50h1v1h-1z M9,50h1v1h-1z M10,50h1v1h-1z M12,50h1v1h-1z M14,50h1v1h-1z M18,50h1v1h-1z M20,50h1v1h-1z M24,50h1v1h-1z M29,50h1v1h-1z M35,50h1v1h-1z M36,50h1v1h-1z M37,50h1v1h-1z M41,50h1v1h-1z M43,50h1v1h-1z M44,50h1v1h-1z M45,50h1v1h-1z M49,50h1v1h-1z M50,50h1v1h-1z M51,50h1v1h-1z M52,50h1v1h-1z M53,50h1v1h-1z M54,50h1v1h-1z M55,50h1v1h-1z M56,50h1v1h-1z M57,50h1v1h-1z M60,50h1v1h-1z M4,51h1v1h-1z M5,51h1v1h-1z M6,51h1v1h-1z M7,51h1v1h-1z M8,51h1v1h-1z M11,51h1v1h-1z M12,51h1v1h-1z M13,51h1v1h-1z M16,51h1v1h-1z M18,51h1v1h-1z M19,51h1v1h-1z M23,51h1v1h-1z M24,51h1v1h-1z M29,51h1v1h-1z M31,51h1v1h-1z M32,51h1v1h-1z M35,51h1v1h-1z M37,51h1v1h-1z M45,51h1v1h-1z M46,51h1v1h-1z M47,51h1v1h-1z M48,51h1v1h-1z M49,51h1v1h-1z M50,51h1v1h-1z M51,51h1v1h-1z M53,51h1v1h-1z M54,51h1v1h-1z M55,51h1v1h-1z M56,51h1v1h-1z M57,51h1v1h-1z M60,51h1v1h-1z M10,52h1v1h-1z M12,52h1v1h-1z M14,52h1v1h-1z M15,52h1v1h-1z M19,52h1v1h-1z M20,52h1v1h-1z M26,52h1v1h-1z M29,52h1v1h-1z M30,52h1v1h-1z M31,52h1v1h-1z M32,52h1v1h-1z M33,52h1v1h-1z M34,52h1v1h-1z M35,52h1v1h-1z M37,52h1v1h-1z M38,52h1v1h-1z M40,52h1v1h-1z M41,52h1v1h-1z M43,52h1v1h-1z M46,52h1v1h-1z M49,52h1v1h-1z M52,52h1v1h-1z M53,52h1v1h-1z M54,52h1v1h-1z M55,52h1v1h-1z M56,52h1v1h-1z M60,52h1v1h-1z M12,53h1v1h-1z M13,53h1v1h-1z M14,53h1v1h-1z M15,53h1v1h-1z M16,53h1v1h-1z M17,53h1v1h-1z M19,53h1v1h-1z M25,53h1v1h-1z M27,53h1v1h-1z M30,53h1v1h-1z M34,53h1v1h-1z M36,53h1v1h-1z M39,53h1v1h-1z M41,53h1v1h-1z M42,53h1v1h-1z M44,53h1v1h-1z M45,53h1v1h-1z M48,53h1v1h-1z M51,53h1v1h-1z M52,53h1v1h-1z M56,53h1v1h-1z M58,53h1v1h-1z M60,53h1v1h-1z M4,54h1v1h-1z M5,54h1v1h-1z M6,54h1v1h-1z M7,54h1v1h-1z M8,54h1v1h-1z M9,54h1v1h-1z M10,54h1v1h-1z M12,54h1v1h-1z M14,54h1v1h-1z M18,54h1v1h-1z M19,54h1v1h-1z M21,54h1v1h-1z M26,54h1v1h-1z M28,54h1v1h-1z M30,54h1v1h-1z M32,54h1v1h-1z M34,54h1v1h-1z M35,54h1v1h-1z M37,54h1v1h-1z M43,54h1v1h-1z M44,54h1v1h-1z M46,54h1v1h-1z M50,54h1v1h-1z M51,54h1v1h-1z M52,54h1v1h-1z M54,54h1v1h-1z M56,54h1v1h-1z M57,54h1v1h-1z M4,55h1v1h-1z M10,55h1v1h-1z M12,55h1v1h-1z M16,55h1v1h-1z M20,55h1v1h-1z M22,55h1v1h-1z M23,55h1v1h-1z M26,55h1v1h-1z M27,55h1v1h-1z M28,55h1v1h-1z M30,55h1v1h-1z M34,55h1v1h-1z M37,55h1v1h-1z M39,55h1v1h-1z M42,55h1v1h-1z M46,55h1v1h-1z M48,55h1v1h-1z M49,55h1v1h-1z M50,55h1v1h-1z M51,55h1v1h-1z M52,55h1v1h-1z M56,55h1v1h-1z M57,55h1v1h-1z M58,55h1v1h-1z M60,55h1v1h-1z M4,56h1v1h-1z M6,56h1v1h-1z M7,56h1v1h-1z M8,56h1v1h-1z M10,56h1v1h-1z M13,56h1v1h-1z M17,56h1v1h-1z M23,56h1v1h-1z M25,56h1v1h-1z M27,56h1v1h-1z M29,56h1v1h-1z M30,56h1v1h-1z M31,56h1v1h-1z M32,56h1v1h-1z M33,56h1v1h-1z M34,56h1v1h-1z M35,56h1v1h-1z M36,56h1v1h-1z M37,56h1v1h-1z M38,56h1v1h-1z M39,56h1v1h-1z M41,56h1v1h-1z M42,56h1v1h-1z M43,56h1v1h-1z M45,56h1v1h-1z M47,56h1v1h-1z M48,56h1v1h-1z M50,56h1v1h-1z M51,56h1v1h-1z M52,56h1v1h-1z M53,56h1v1h-1z M54,56h1v1h-1z M55,56h1v1h-1z M56,56h1v1h-1z M57,56h1v1h-1z M4,57h1v1h-1z M6,57h1v1h-1z M7,57h1v1h-1z M8,57h1v1h-1z M10,57h1v1h-1z M12,57h1v1h-1z M16,57h1v1h-1z M17,57h1v1h-1z M18,57h1v1h-1z M21,57h1v1h-1z M22,57h1v1h-1z M25,57h1v1h-1z M26,57h1v1h-1z M27,57h1v1h-1z M32,57h1v1h-1z M33,57h1v1h-1z M37,57h1v1h-1z M38,57h1v1h-1z M40,57h1v1h-1z M47,57h1v1h-1z M49,57h1v1h-1z M50,57h1v1h-1z M51,57h1v1h-1z M52,57h1v1h-1z M53,57h1v1h-1z M54,57h1v1h-1z M56,57h1v1h-1z M57,57h1v1h-1z M58,57h1v1h-1z M59,57h1v1h-1z M4,58h1v1h-1z M6,58h1v1h-1z M7,58h1v1h-1z M8,58h1v1h-1z M10,58h1v1h-1z M12,58h1v1h-1z M13,58h1v1h-1z M14,58h1v1h-1z M15,58h1v1h-1z M16,58h1v1h-1z M19,58h1v1h-1z M20,58h1v1h-1z M23,58h1v1h-1z M26,58h1v1h-1z M33,58h1v1h-1z M34,58h1v1h-1z M35,58h1v1h-1z M36,58h1v1h-1z M37,58h1v1h-1z M40,58h1v1h-1z M41,58h1v1h-1z M42,58h1v1h-1z M43,58h1v1h-1z M45,58h1v1h-1z M49,58h1v1h-1z M51,58h1v1h-1z M52,58h1v1h-1z M53,58h1v1h-1z M54,58h1v1h-1z M55,58h1v1h-1z M57,58h1v1h-1z M58,58h1v1h-1z M4,59h1v1h-1z M10,59h1v1h-1z M13,59h1v1h-1z M20,59h1v1h-1z M21,59h1v1h-1z M22,59h1v1h-1z M23,59h1v1h-1z M25,59h1v1h-1z M30,59h1v1h-1z M31,59h1v1h-1z M32,59h1v1h-1z M37,59h1v1h-1z M39,59h1v1h-1z M41,59h1v1h-1z M42,59h1v1h-1z M45,59h1v1h-1z M46,59h1v1h-1z M48,59h1v1h-1z M52,59h1v1h-1z M53,59h1v1h-1z M54,59h1v1h-1z M56,59h1v1h-1z M57,59h1v1h-1z M60,59h1v1h-1z M4,60h1v1h-1z M5,60h1v1h-1z M6,60h1v1h-1z M7,60h1v1h-1z M8,60h1v1h-1z M9,60h1v1h-1z M10,60h1v1h-1z M12,60h1v1h-1z M13,60h1v1h-1z M14,60h1v1h-1z M16,60h1v1h-1z M19,60h1v1h-1z M24,60h1v1h-1z M27,60h1v1h-1z M28,60h1v1h-1z M29,60h1v1h-1z M33,60h1v1h-1z M37,60h1v1h-1z M39,60h1v1h-1z M41,60h1v1h-1z M43,60h1v1h-1z M44,60h1v1h-1z M45,60h1v1h-1z M49,60h1v1h-1z M51,60h1v1h-1z M52,60h1v1h-1z M53,60h1v1h-1z M55,60h1v1h-1z M56,60h1v1h-1z M58,60h1v1h-1z" fill="#000000"/>
</svg>
